<?xml version="1.0" standalone="no"?>
<!DOCTYPE svg PUBLIC "-//W3C//DTD SVG 20010904//EN"
 "http://www.w3.org/TR/2001/REC-SVG-20010904/DTD/svg10.dtd">
<svg version="1.0" xmlns="http://www.w3.org/2000/svg"
 width="334.000000pt" height="220.000000pt" viewBox="0 0 334.000000 220.000000"
 preserveAspectRatio="xMidYMid meet">

<g transform="translate(0.000000,220.000000) scale(0.100000,-0.100000)"
fill="#000000" stroke="none">
<path d="M0 1100 l0 -1100 1670 0 1670 0 0 1100 0 1100 -1670 0 -1670 0 0
-1100z m1990 695 l315 -315 -310 -310 c-170 -170 -317 -310 -325 -310 -16 0
-630 609 -630 625 0 13 612 625 625 625 6 0 152 -142 325 -315z m-1565 -1065
c0 -12 -20 -16 -100 -20 -107 -6 -125 -12 -166 -57 -40 -43 -52 -72 -52 -129
0 -117 90 -193 230 -194 73 0 126 -66 115 -143 -3 -16 -20 -44 -39 -63 l-34
-34 -144 0 c-122 0 -145 2 -145 15 0 13 22 15 134 15 130 0 135 1 165 26 25
20 31 34 31 64 0 54 -43 90 -109 90 -75 0 -136 26 -181 77 -63 72 -76 151 -39
233 47 104 117 140 264 137 55 -2 70 -5 70 -17z m145 -138 l0 -146 33 31 c45
43 69 53 127 53 67 0 123 -29 158 -83 26 -41 27 -45 27 -196 0 -115 -3 -155
-12 -158 -10 -4 -13 28 -13 138 0 162 -13 206 -73 247 -73 49 -188 17 -227
-63 -17 -35 -20 -62 -20 -184 0 -110 -3 -142 -12 -139 -10 4 -14 78 -16 319
-1 172 0 320 3 327 3 7 9 10 15 7 6 -4 10 -65 10 -153z m1989 -45 l93 -192 95
190 c52 105 101 191 109 193 12 3 14 -45 14 -322 0 -283 -2 -326 -15 -326 -13
0 -15 38 -16 283 l0 282 -90 -177 c-49 -98 -93 -178 -97 -178 -4 0 -46 77 -92
171 l-85 170 -5 -273 c-4 -234 -7 -273 -20 -273 -13 0 -15 42 -18 310 -1 170
0 315 3 322 12 33 37 -3 124 -180z m-1301 -22 c47 -20 79 -50 103 -97 16 -32
19 -59 19 -188 0 -127 -2 -150 -15 -150 -11 0 -15 12 -15 43 -1 33 -3 38 -11
25 -19 -34 -93 -68 -146 -68 -114 0 -193 88 -193 214 0 114 36 181 115 217 49
23 94 24 143 4z m466 0 c0 -5 -25 -13 -54 -18 -63 -9 -116 -45 -136 -93 -10
-23 -14 -77 -14 -179 0 -122 -2 -145 -15 -145 -13 0 -15 23 -15 145 0 191 20
242 115 286 41 20 121 22 119 4z m275 5 c70 -20 121 -96 121 -180 l0 -50 -160
0 -160 0 0 -32 c0 -41 28 -88 73 -122 26 -20 45 -26 83 -26 50 0 103 21 117
46 8 14 37 20 37 7 -1 -15 -26 -41 -60 -62 -77 -47 -195 -18 -247 61 -26 39
-28 49 -28 143 0 95 2 104 28 144 44 67 118 94 196 71z m1158 -5 c21 -9 46
-23 57 -33 30 -27 56 -93 56 -144 l0 -48 -160 0 -160 0 0 -36 c0 -78 71 -144
154 -144 52 0 78 10 117 47 38 35 49 10 13 -28 -81 -85 -239 -58 -294 51 -27
53 -28 187 -1 245 41 90 130 127 218 90z"/>
<path d="M1423 1812 l-241 -249 196 -196 c109 -109 201 -197 206 -197 6 0 20
10 33 22 l24 22 -177 177 -177 177 218 221 218 221 -23 25 c-13 14 -26 25 -30
25 -3 0 -115 -112 -247 -248z"/>
<path d="M1552 1767 l-203 -203 24 -22 c13 -12 28 -22 33 -22 5 0 86 77 179
170 l170 170 217 -217 217 -217 31 29 31 29 -243 243 c-134 134 -245 243 -248
243 -3 0 -96 -91 -208 -203z"/>
<path d="M1727 1772 l-27 -28 175 -174 175 -175 -217 -217 -218 -218 28 -27
27 -28 248 248 247 247 -200 200 c-110 110 -202 200 -206 200 -3 0 -17 -13
-32 -28z"/>
<path d="M1592 1637 l-73 -73 24 -22 c13 -12 28 -22 33 -22 5 0 41 31 79 70
l69 69 -24 26 c-13 14 -26 25 -29 25 -4 0 -39 -33 -79 -73z"/>
<path d="M1732 1607 c-12 -13 -22 -28 -22 -33 0 -5 32 -41 70 -79 l70 -70 27
28 28 27 -76 75 -75 76 -22 -24z"/>
<path d="M1635 1510 l-29 -30 32 -33 32 -32 32 32 32 33 -29 30 c-16 16 -32
30 -35 30 -3 0 -19 -14 -35 -30z"/>
<path d="M1120 1505 l-24 -26 244 -244 245 -245 202 202 203 202 -27 28 -27
29 -176 -176 -175 -175 -215 215 c-118 118 -217 215 -221 215 -3 0 -16 -11
-29 -25z"/>
<path d="M1460 1505 l-24 -26 72 -72 72 -72 27 28 28 27 -70 70 c-38 38 -72
70 -75 70 -4 0 -17 -11 -30 -25z"/>
<path d="M1690 1375 l-75 -75 28 -27 27 -28 75 76 76 75 -29 27 -28 27 -74
-75z"/>
<path d="M1124 491 c-23 -10 -52 -34 -65 -52 -21 -30 -24 -45 -24 -126 0 -102
11 -127 76 -171 28 -20 44 -23 90 -20 66 5 109 32 134 84 25 52 18 191 -11
230 -51 69 -126 90 -200 55z"/>
<path d="M1882 493 c-44 -21 -74 -66 -80 -119 l-5 -44 147 0 146 0 0 39 c0 71
-72 141 -145 141 -16 0 -45 -8 -63 -17z"/>
<path d="M3030 492 c-46 -23 -80 -75 -80 -123 l0 -39 146 0 147 0 -5 44 c-12
106 -115 165 -208 118z"/>
</g>
</svg>
